<svg width="200" height="40" viewBox="0 0 311 36" fill="none" xmlns="http://www.w3.org/2000/svg">
<path d="M0.795898 2.29688H11.6221C14.0778 2.29688 16.1517 2.67122 17.8438 3.41992C19.5508 4.16862 20.846 5.27669 21.7295 6.74414C22.6279 8.19661 23.0771 9.986 23.0771 12.1123C23.0771 13.6097 22.7702 14.9798 22.1562 16.2227C21.5573 17.4505 20.6888 18.4987 19.5508 19.3672C18.4277 20.2207 17.0801 20.8571 15.5078 21.2764L14.2949 21.748H4.12012L4.0752 18.2217H11.7568C13.3141 18.2217 14.6094 17.9521 15.6426 17.4131C16.6758 16.859 17.4544 16.1178 17.9785 15.1895C18.5026 14.2611 18.7646 13.2354 18.7646 12.1123C18.7646 10.8545 18.5176 9.75391 18.0234 8.81055C17.5293 7.86719 16.7507 7.14095 15.6875 6.63184C14.6393 6.10775 13.2842 5.8457 11.6221 5.8457H5.13086V35H0.795898V2.29688ZM19.9102 35L11.959 20.1758L16.4736 20.1533L24.5371 34.7305V35H19.9102ZM33.0273 10.6973V35H28.8496V10.6973H33.0273ZM28.5352 4.25098C28.5352 3.57715 28.7373 3.00814 29.1416 2.54395C29.5609 2.07975 30.1748 1.84766 30.9834 1.84766C31.777 1.84766 32.3835 2.07975 32.8027 2.54395C33.237 3.00814 33.4541 3.57715 33.4541 4.25098C33.4541 4.89486 33.237 5.44889 32.8027 5.91309C32.3835 6.3623 31.777 6.58691 30.9834 6.58691C30.1748 6.58691 29.5609 6.3623 29.1416 5.91309C28.7373 5.44889 28.5352 4.89486 28.5352 4.25098ZM55.0166 30.2832V0.5H59.1943V35H55.376L55.0166 30.2832ZM38.665 23.1182V22.6465C38.665 20.7897 38.8896 19.1051 39.3389 17.5928C39.8031 16.0654 40.4544 14.7552 41.293 13.6621C42.1465 12.569 43.1572 11.7305 44.3252 11.1465C45.5081 10.5475 46.8258 10.248 48.2783 10.248C49.8057 10.248 51.1383 10.5176 52.2764 11.0566C53.4294 11.5807 54.4027 12.3519 55.1963 13.3701C56.0049 14.3734 56.6413 15.5863 57.1055 17.0088C57.5697 18.4313 57.8916 20.041 58.0713 21.8379V23.9043C57.9066 25.6862 57.5846 27.2884 57.1055 28.7109C56.6413 30.1335 56.0049 31.3464 55.1963 32.3496C54.4027 33.3529 53.4294 34.124 52.2764 34.6631C51.1234 35.1872 49.7757 35.4492 48.2334 35.4492C46.8109 35.4492 45.5081 35.1423 44.3252 34.5283C43.1572 33.9144 42.1465 33.0534 41.293 31.9453C40.4544 30.8372 39.8031 29.5345 39.3389 28.0371C38.8896 26.5247 38.665 24.8851 38.665 23.1182ZM42.8428 22.6465V23.1182C42.8428 24.3311 42.9626 25.4691 43.2021 26.5322C43.4567 27.5954 43.846 28.5312 44.3701 29.3398C44.8942 30.1484 45.5605 30.7848 46.3691 31.249C47.1777 31.6982 48.1436 31.9229 49.2666 31.9229C50.6442 31.9229 51.7747 31.6309 52.6582 31.0469C53.5566 30.4629 54.2754 29.6917 54.8145 28.7334C55.3535 27.7751 55.7728 26.7344 56.0723 25.6113V20.1982C55.8926 19.3747 55.6305 18.5811 55.2861 17.8174C54.9567 17.0387 54.5225 16.3499 53.9834 15.751C53.4593 15.137 52.8079 14.6504 52.0293 14.291C51.2656 13.9316 50.3597 13.752 49.3115 13.752C48.1735 13.752 47.1927 13.9915 46.3691 14.4707C45.5605 14.9349 44.8942 15.5788 44.3701 16.4023C43.846 17.2109 43.4567 18.1543 43.2021 19.2324C42.9626 20.2956 42.8428 21.4336 42.8428 22.6465ZM69.8184 0.5V35H65.6631V0.5H69.8184ZM68.8301 21.9277L67.1006 21.8604C67.1156 20.1982 67.3626 18.6634 67.8418 17.2559C68.321 15.8333 68.9948 14.598 69.8633 13.5498C70.7318 12.5016 71.765 11.693 72.9629 11.124C74.1758 10.54 75.516 10.248 76.9834 10.248C78.1813 10.248 79.2594 10.4128 80.2178 10.7422C81.1761 11.0566 81.9922 11.5658 82.666 12.2695C83.3548 12.9733 83.8789 13.8867 84.2383 15.0098C84.5977 16.1178 84.7773 17.473 84.7773 19.0752V35H80.5996V19.0303C80.5996 17.7575 80.4124 16.7393 80.0381 15.9756C79.6637 15.1969 79.1172 14.6354 78.3984 14.291C77.6797 13.9316 76.7962 13.752 75.748 13.752C74.7148 13.752 73.7715 13.9691 72.918 14.4033C72.0794 14.8376 71.3532 15.4365 70.7393 16.2002C70.1403 16.9639 69.6686 17.8398 69.3242 18.8281C68.9948 19.8014 68.8301 20.8346 68.8301 21.9277ZM97.1533 30.6875L103.397 10.6973H106.138L105.599 14.6729L99.2422 35H96.5693L97.1533 30.6875ZM92.9531 10.6973L98.2764 30.9121L98.6582 35H95.8506L88.7979 10.6973H92.9531ZM112.112 30.7549L117.188 10.6973H121.321L114.269 35H111.483L112.112 30.7549ZM106.744 10.6973L112.854 30.3506L113.55 35H110.899L104.363 14.6279L103.824 10.6973H106.744ZM139.919 30.8447V18.334C139.919 17.3757 139.724 16.5446 139.335 15.8408C138.961 15.1221 138.392 14.568 137.628 14.1787C136.864 13.7894 135.921 13.5947 134.798 13.5947C133.75 13.5947 132.829 13.7744 132.035 14.1338C131.257 14.4932 130.643 14.9648 130.193 15.5488C129.759 16.1328 129.542 16.7617 129.542 17.4355H125.387C125.387 16.5671 125.611 15.7061 126.061 14.8525C126.51 13.999 127.154 13.2279 127.992 12.5391C128.846 11.8353 129.864 11.2812 131.047 10.877C132.245 10.4577 133.577 10.248 135.045 10.248C136.812 10.248 138.369 10.5475 139.717 11.1465C141.079 11.7454 142.143 12.6514 142.906 13.8643C143.685 15.0622 144.074 16.5671 144.074 18.3789V29.6992C144.074 30.5078 144.142 31.3688 144.276 32.2822C144.426 33.1956 144.643 33.9818 144.928 34.6406V35H140.593C140.383 34.5208 140.218 33.8844 140.099 33.0908C139.979 32.2822 139.919 31.5335 139.919 30.8447ZM140.638 20.2656L140.683 23.1855H136.482C135.299 23.1855 134.244 23.2829 133.315 23.4775C132.387 23.6572 131.608 23.9342 130.979 24.3086C130.351 24.6829 129.871 25.1546 129.542 25.7236C129.213 26.2777 129.048 26.929 129.048 27.6777C129.048 28.4414 129.22 29.1377 129.564 29.7666C129.909 30.3955 130.425 30.8971 131.114 31.2715C131.818 31.6309 132.679 31.8105 133.697 31.8105C134.97 31.8105 136.093 31.541 137.066 31.002C138.04 30.4629 138.811 29.804 139.38 29.0254C139.964 28.2467 140.278 27.4906 140.323 26.7568L142.098 28.7559C141.993 29.3848 141.708 30.0811 141.244 30.8447C140.78 31.6084 140.159 32.3421 139.38 33.0459C138.616 33.7347 137.703 34.3112 136.64 34.7754C135.591 35.2246 134.409 35.4492 133.091 35.4492C131.444 35.4492 129.999 35.1273 128.756 34.4834C127.528 33.8395 126.57 32.9785 125.881 31.9004C125.207 30.8073 124.87 29.5869 124.87 28.2393C124.87 26.9365 125.125 25.791 125.634 24.8027C126.143 23.7995 126.877 22.9684 127.835 22.3096C128.793 21.6357 129.946 21.1266 131.294 20.7822C132.642 20.4378 134.146 20.2656 135.809 20.2656H140.638ZM154.766 15.8857V35H150.61V10.6973H154.541L154.766 15.8857ZM153.777 21.9277L152.048 21.8604C152.063 20.1982 152.31 18.6634 152.789 17.2559C153.268 15.8333 153.942 14.598 154.811 13.5498C155.679 12.5016 156.712 11.693 157.91 11.124C159.123 10.54 160.463 10.248 161.931 10.248C163.129 10.248 164.207 10.4128 165.165 10.7422C166.123 11.0566 166.939 11.5658 167.613 12.2695C168.302 12.9733 168.826 13.8867 169.186 15.0098C169.545 16.1178 169.725 17.473 169.725 19.0752V35H165.547V19.0303C165.547 17.7575 165.36 16.7393 164.985 15.9756C164.611 15.1969 164.064 14.6354 163.346 14.291C162.627 13.9316 161.743 13.752 160.695 13.752C159.662 13.752 158.719 13.9691 157.865 14.4033C157.027 14.8376 156.3 15.4365 155.687 16.2002C155.088 16.9639 154.616 17.8398 154.271 18.8281C153.942 19.8014 153.777 20.8346 153.777 21.9277ZM190.366 30.8447V18.334C190.366 17.3757 190.172 16.5446 189.782 15.8408C189.408 15.1221 188.839 14.568 188.075 14.1787C187.312 13.7894 186.368 13.5947 185.245 13.5947C184.197 13.5947 183.276 13.7744 182.482 14.1338C181.704 14.4932 181.09 14.9648 180.641 15.5488C180.206 16.1328 179.989 16.7617 179.989 17.4355H175.834C175.834 16.5671 176.059 15.7061 176.508 14.8525C176.957 13.999 177.601 13.2279 178.439 12.5391C179.293 11.8353 180.311 11.2812 181.494 10.877C182.692 10.4577 184.025 10.248 185.492 10.248C187.259 10.248 188.816 10.5475 190.164 11.1465C191.527 11.7454 192.59 12.6514 193.354 13.8643C194.132 15.0622 194.521 16.5671 194.521 18.3789V29.6992C194.521 30.5078 194.589 31.3688 194.724 32.2822C194.873 33.1956 195.09 33.9818 195.375 34.6406V35H191.04C190.83 34.5208 190.666 33.8844 190.546 33.0908C190.426 32.2822 190.366 31.5335 190.366 30.8447ZM191.085 20.2656L191.13 23.1855H186.93C185.747 23.1855 184.691 23.2829 183.763 23.4775C182.834 23.6572 182.056 23.9342 181.427 24.3086C180.798 24.6829 180.319 25.1546 179.989 25.7236C179.66 26.2777 179.495 26.929 179.495 27.6777C179.495 28.4414 179.667 29.1377 180.012 29.7666C180.356 30.3955 180.873 30.8971 181.562 31.2715C182.265 31.6309 183.126 31.8105 184.145 31.8105C185.417 31.8105 186.54 31.541 187.514 31.002C188.487 30.4629 189.258 29.804 189.827 29.0254C190.411 28.2467 190.726 27.4906 190.771 26.7568L192.545 28.7559C192.44 29.3848 192.156 30.0811 191.691 30.8447C191.227 31.6084 190.606 32.3421 189.827 33.0459C189.063 33.7347 188.15 34.3112 187.087 34.7754C186.039 35.2246 184.856 35.4492 183.538 35.4492C181.891 35.4492 180.446 35.1273 179.203 34.4834C177.975 33.8395 177.017 32.9785 176.328 31.9004C175.654 30.8073 175.317 29.5869 175.317 28.2393C175.317 26.9365 175.572 25.791 176.081 24.8027C176.59 23.7995 177.324 22.9684 178.282 22.3096C179.241 21.6357 180.394 21.1266 181.741 20.7822C183.089 20.4378 184.594 20.2656 186.256 20.2656H191.085ZM217.432 2.29688V35H213.097V2.29688H217.432ZM237.175 2.29688L223.586 17.5479L215.949 25.4766L215.23 20.8496L220.98 14.5156L231.964 2.29688H237.175ZM232.997 35L220.891 19.0527L223.474 15.6162L238.163 35H232.997ZM245.508 0.5V35H241.353V0.5H245.508ZM244.52 21.9277L242.79 21.8604C242.805 20.1982 243.052 18.6634 243.531 17.2559C244.01 15.8333 244.684 14.598 245.553 13.5498C246.421 12.5016 247.454 11.693 248.652 11.124C249.865 10.54 251.205 10.248 252.673 10.248C253.871 10.248 254.949 10.4128 255.907 10.7422C256.866 11.0566 257.682 11.5658 258.355 12.2695C259.044 12.9733 259.568 13.8867 259.928 15.0098C260.287 16.1178 260.467 17.473 260.467 19.0752V35H256.289V19.0303C256.289 17.7575 256.102 16.7393 255.728 15.9756C255.353 15.1969 254.807 14.6354 254.088 14.291C253.369 13.9316 252.486 13.752 251.438 13.752C250.404 13.752 249.461 13.9691 248.607 14.4033C247.769 14.8376 247.043 15.4365 246.429 16.2002C245.83 16.9639 245.358 17.8398 245.014 18.8281C244.684 19.8014 244.52 20.8346 244.52 21.9277ZM281.019 30.8447V18.334C281.019 17.3757 280.824 16.5446 280.435 15.8408C280.06 15.1221 279.491 14.568 278.728 14.1787C277.964 13.7894 277.021 13.5947 275.897 13.5947C274.849 13.5947 273.928 13.7744 273.135 14.1338C272.356 14.4932 271.742 14.9648 271.293 15.5488C270.859 16.1328 270.642 16.7617 270.642 17.4355H266.486C266.486 16.5671 266.711 15.7061 267.16 14.8525C267.609 13.999 268.253 13.2279 269.092 12.5391C269.945 11.8353 270.964 11.2812 272.146 10.877C273.344 10.4577 274.677 10.248 276.145 10.248C277.911 10.248 279.469 10.5475 280.816 11.1465C282.179 11.7454 283.242 12.6514 284.006 13.8643C284.785 15.0622 285.174 16.5671 285.174 18.3789V29.6992C285.174 30.5078 285.241 31.3688 285.376 32.2822C285.526 33.1956 285.743 33.9818 286.027 34.6406V35H281.692C281.483 34.5208 281.318 33.8844 281.198 33.0908C281.078 32.2822 281.019 31.5335 281.019 30.8447ZM281.737 20.2656L281.782 23.1855H277.582C276.399 23.1855 275.343 23.2829 274.415 23.4775C273.487 23.6572 272.708 23.9342 272.079 24.3086C271.45 24.6829 270.971 25.1546 270.642 25.7236C270.312 26.2777 270.147 26.929 270.147 27.6777C270.147 28.4414 270.32 29.1377 270.664 29.7666C271.008 30.3955 271.525 30.8971 272.214 31.2715C272.918 31.6309 273.779 31.8105 274.797 31.8105C276.07 31.8105 277.193 31.541 278.166 31.002C279.139 30.4629 279.91 29.804 280.479 29.0254C281.063 28.2467 281.378 27.4906 281.423 26.7568L283.197 28.7559C283.092 29.3848 282.808 30.0811 282.344 30.8447C281.88 31.6084 281.258 32.3421 280.479 33.0459C279.716 33.7347 278.802 34.3112 277.739 34.7754C276.691 35.2246 275.508 35.4492 274.19 35.4492C272.543 35.4492 271.098 35.1273 269.855 34.4834C268.628 33.8395 267.669 32.9785 266.98 31.9004C266.307 30.8073 265.97 29.5869 265.97 28.2393C265.97 26.9365 266.224 25.791 266.733 24.8027C267.243 23.7995 267.976 22.9684 268.935 22.3096C269.893 21.6357 271.046 21.1266 272.394 20.7822C273.741 20.4378 275.246 20.2656 276.908 20.2656H281.737ZM295.865 15.8857V35H291.71V10.6973H295.641L295.865 15.8857ZM294.877 21.9277L293.147 21.8604C293.162 20.1982 293.41 18.6634 293.889 17.2559C294.368 15.8333 295.042 14.598 295.91 13.5498C296.779 12.5016 297.812 11.693 299.01 11.124C300.223 10.54 301.563 10.248 303.03 10.248C304.228 10.248 305.306 10.4128 306.265 10.7422C307.223 11.0566 308.039 11.5658 308.713 12.2695C309.402 12.9733 309.926 13.8867 310.285 15.0098C310.645 16.1178 310.824 17.473 310.824 19.0752V35H306.646V19.0303C306.646 17.7575 306.459 16.7393 306.085 15.9756C305.711 15.1969 305.164 14.6354 304.445 14.291C303.727 13.9316 302.843 13.752 301.795 13.752C300.762 13.752 299.818 13.9691 298.965 14.4033C298.126 14.8376 297.4 15.4365 296.786 16.2002C296.187 16.9639 295.715 17.8398 295.371 18.8281C295.042 19.8014 294.877 20.8346 294.877 21.9277Z" fill="#E4E2E9"/>
</svg>
