<svg fill="none" height="66" viewBox="0 0 374 66" width="374" xmlns="http://www.w3.org/2000/svg"><path d="m17.208 37.9673c-.432-1.728-1.632-2.592-3.6-2.592-3.408 0-6.144 1.704-8.208 5.112-1.872 2.976-2.808 6.096-2.808 9.36s.72 5.832 2.16 7.704c1.488 2.16 3.744 3.24 6.768 3.24 5.568 0 11.064-3.816 16.488-11.448 3.072-4.464 5.544-8.592 7.416-12.384-1.2-.24-2.52-.648-3.96-1.224-2.352 4.992-5.16 9.6-8.424 13.824-4.608 6.048-8.688 9.072-12.24 9.072-.432 0-.648-.168-.648-.504 0-.288.288-.48.864-.576.576-.048 1.296-.192 2.16-.432 3.168-1.248 6.624-4.368 10.368-9.36 2.592-3.552 4.992-7.656 7.2-12.312-3.216-1.536-4.824-3.192-4.824-4.968 0-.864.456-1.656 1.368-2.376.912-.768 1.896-1.152 2.952-1.152 1.104 0 2.304.48 3.6 1.44 2.928-7.632 4.632-14.712 5.112-21.24001-4.32.192-8.712 1.008-13.176 2.448-4.464 1.44001-8.016 3.55201-10.656 6.33601-1.824 1.824-2.736 3.864-2.736 6.12 0 3.84 2.016 6.528 6.048 8.064.528.288 1.488.576 2.88.864.288.096.432.24.432.432s-.192.24-.576.144h-.072c-2.592 0-5.256-1.128-7.992-3.384-2.688-2.256-4.032-4.8-4.032-7.632 0-2.016.84-3.864 2.52-5.544 2.784-2.88 6.744-5.04001 11.88-6.48001 5.184-1.44 10.392-2.28 15.624-2.52v-4.608c0-.384.144-.576.432-.576s.432.744.432 2.232v2.88h3.24c3.456 0 7.056.36 10.8 1.08 4.272.96 7.752 2.376 10.44 4.24801 3.648 2.544 5.472 5.64 5.472 9.288 0 3.6-1.752 6.792-5.256 9.576-5.184 4.272-12.768 6.648-22.752 7.128.672.912 1.632 2.232 2.88 3.96 2.784 3.792 4.92 6.648 6.408 8.568 3.984 5.424 7.248 9.024 9.792 10.8 2.592 1.776 4.752 2.664 6.48 2.664 2.592 0 3.888-1.656 3.888-4.968 0-3.264-.984-6.24-2.952-8.928-.144-.144-.216-.264-.216-.36 0-.144.096-.216.288-.216.24 0 .456.168.648.504 2.256 2.592 3.384 5.424 3.384 8.496 0 2.208-.672 4.056-2.016 5.544s-3.096 2.232-5.256 2.232c-3.168 0-6.48-1.512-9.936-4.536-4.128-3.552-7.896-8.952-11.304-16.2l-3.744-7.56h-1.224c-7.872 16.224-16.968 24.336-27.288 24.336-3.552 0-6.384-1.152-8.496-3.456-2.112-2.256-3.168-5.28-3.168-9.072 0-3.84 1.176-7.296 3.528-10.368 2.4-3.072 5.496-4.608 9.288-4.608 1.104 0 2.112.312 3.024.936 1.008.528 1.512 1.344 1.512 2.448 0 .288-.072.456-.216.504zm36.792-3.888c8.208-2.496 12.312-6.552 12.312-12.168 0-3.216-1.584-6.12-4.752-8.712-2.304-2.016-5.448-3.60001-9.432-4.75201-3.456-.912-7.08-1.368-10.872-1.368h-1.368c-.432 6.48001-2.232 13.72801-5.4 21.74401 1.2 1.008 2.256 2.04 3.168 3.096 1.824-4.416 3.36-9.432 4.608-15.048.192-1.056.336-1.752.432-2.088.336-1.44 1.272-2.16 2.808-2.16.864 0 1.296.36 1.296 1.08 0 .336-.192 1.344-.576 3.024-1.296 5.952-3.312 12.024-6.048 18.216l.504.648c5.232 0 9.672-.504 13.32-1.512zm-23.904-6.264c-1.344 0-2.016.744-2.016 2.232 0 1.44 1.128 2.784 3.384 4.032.912-1.968 1.584-3.6 2.016-4.896-1.392-.912-2.52-1.368-3.384-1.368zm7.2 5.112c-1.104-1.296-2.16-2.352-3.168-3.168-.72 1.776-1.392 3.312-2.016 4.608 1.248.528 2.592.888 4.032 1.08zm42.9013 8.496c.096 0 .144.048.144.144 0 .816-1.32 2.616-3.96 5.4-2.112 2.112-3.72 3.168-4.824 3.168-2.448 0-3.672-1.224-3.672-3.672 0-1.824.48-4.128 1.44-6.912l-1.296 2.016c-.624 1.056-1.056 1.584-1.296 1.584-.096 0-.144-.12-.144-.36 0-.288.36-.912 1.08-1.872s1.776-2.928 3.168-5.904c.384-1.008.912-2.136 1.584-3.384.24-.432.792-.648 1.656-.648.912 0 1.368.24 1.368.72s-.24 1.2-.72 2.16-.888 1.512-1.224 1.656c-2.496 4.992-3.744 8.664-3.744 11.016 0 1.584.528 2.376 1.584 2.376 1.728 0 3.624-1.248 5.688-3.744.864-1.008 1.392-1.608 1.584-1.8.192-.24.384-.48.576-.72s.36-.432.504-.576c.24-.24.408-.456.504-.648zm-2.232-19.584c1.056-.48 1.704-.72 1.944-.72s.36.072.36.216c0 .096-.552.768-1.656 2.016l-1.08 2.232c-.432.96-.984 1.44-1.656 1.44-.96 0-1.44-.504-1.44-1.512 0-.48.312-1.08.936-1.8.672-.768 1.536-1.392 2.592-1.872zm24.7557 2.376c.576.144.864.624.864 1.44 0 .768-.624 2.16-1.872 4.176-1.2 2.016-2.1361 3.264-2.8081 3.744-.912 1.872-1.728 4.224-2.448 7.056-.672 2.784-1.008 5.256-1.008 7.416s.624 3.24 1.872 3.24c1.488 0 3.2401-1.296 5.2561-3.888.672-.768 1.968-2.712 3.888-5.832.192-.288.36-.432.504-.432s.216.072.216.216l-.144.432c-3.696 7.152-7.1521 10.728-10.3681 10.728-2.784 0-4.176-2.016-4.176-6.048 0-1.968.432-4.896 1.296-8.784-1.824 3.504-3.432 6.264-4.824 8.28-2.592 3.552-4.992 5.328-7.2 5.328s-3.312-1.488-3.312-4.464c0-4.56 2.424-9.408 7.272-14.544s9.6-7.968 14.256-8.496c3.5041-8.592 6.5041-15.31201 9.0001-20.16001.816-1.104 2.112-1.656 3.888-1.656.672 0 1.008.168 1.008.504-3.744 7.056-7.464 14.30401-11.16 21.74401zm-22.4641 21.24c0 2.112.648 3.168 1.944 3.168 3.504 0 6.936-3.912 10.296-11.736-.96.288-1.632.432-2.016.432-.336 0-.504-.096-.504-.288 0-.24.312-.456.936-.648.672-.24 1.488-.696 2.448-1.368.432-1.152.768-2.136 1.008-2.952.288-.816.528-1.224.72-1.224.336 0 .504.216.504.648s-.216 1.224-.648 2.376l1.296-.936 3.024-7.488c-3.648.816-7.728 3.48-12.24 7.992s-6.768 8.52-6.768 12.024zm44.6471-15.84-.648 5.472c0 2.928.432 5.88 1.296 8.856 1.248 4.128 2.952 6.192 5.112 6.192.384 0 .864-.12 1.44-.36s.912-.36 1.008-.36c.384 0 .576.216.576.648s-.504.84-1.512 1.224c-.96.384-1.704.576-2.232.576-2.448 0-4.584-1.848-6.408-5.544-1.776-3.696-2.664-7.056-2.664-10.08 0-.576.024-.984.072-1.224-1.584 2.304-5.016 5.952-10.296 10.944-.624 2.112-1.152 4.224-1.584 6.336-.336 1.296-1.128 1.944-2.376 1.944-.576 0-.816-.192-.72-.576-.144-.384-.48-1.008-1.008-1.872-.576-.816-.864-1.368-.864-1.656s.168-.456.504-.504c.864-.528 1.944-1.368 3.24-2.52 2.928-8.544 7.944-20.664 15.048-36.36.096-.192.24-.552.432-1.08001.336-.912.816-1.92 1.44-3.024.528-1.104 1.8-1.656 3.816-1.656.72 0 1.08.168 1.08.504 0 0-1.44 2.712-4.32 8.13601-6.72 12.72-11.352 22.728-13.896 30.024 5.616-5.616 9.336-10.248 11.16-13.896.288-.48.744-.72 1.368-.72s.936.192.936.576zm-17.784 19.656-1.512 1.224c.24.336.48.84.72 1.512.384-1.44.648-2.352.792-2.736zm52.583-11.232c.192 1.584.48 2.616.864 3.096.432.432.648.768.648 1.008 0 .192-.072.288-.216.288-.432 0-1.224-1.104-2.376-3.312-.672 2.352-1.536 4.416-2.592 6.192-1.536 2.544-3.144 3.816-4.824 3.816-1.632 0-2.88-.528-3.744-1.584-.864-1.104-1.296-2.256-1.296-3.456 0-1.248.072-2.256.216-3.024-1.776 2.352-3.624 4.464-5.544 6.336-2.928 2.88-5.136 4.32-6.624 4.32-1.392 0-2.088-.912-2.088-2.736 0-2.976 1.32-6.744 3.96-11.304-.24.24-.84 1.056-1.8 2.448-.96 1.344-1.512 2.016-1.656 2.016-.096 0-.144-.072-.144-.216 0-.576 1.08-2.16 3.24-4.752 2.208-2.592 3.72-4.2 4.536-4.824.864-.624 1.608-.936 2.232-.936.672 0 1.008.144 1.008.432 0 .144-.096.288-.288.432-1.392 1.488-3.288 4.32-5.688 8.496-2.4 4.128-3.6 6.936-3.6 8.424 0 .576.192.864.576.864 3.024 0 7.128-3.96 12.312-11.88.096-.096.384-.552.864-1.368.48-.864.864-1.512 1.152-1.944.288-.48.888-.72 1.8-.72.96 0 1.44.36 1.44 1.08-1.824 2.832-2.736 5.832-2.736 9 0 2.304.6 3.456 1.8 3.456s2.64-1.296 4.32-3.888c1.296-2.16 2.184-4.008 2.664-5.544-1.2-3.888-1.8-6.048-1.8-6.48 0-.816.36-1.224 1.08-1.224.816 0 1.512.528 2.088 1.584.624 1.008.936 1.992.936 2.952s-.24 1.944-.72 2.952zm26.554 4.176c.288-.384.504-.576.648-.576s.216.12.216.36c0 .192-.096.408-.288.648-4.32 6.432-7.656 9.648-10.008 9.648-1.296 0-2.28-.6-2.952-1.8-.624-1.248-.936-2.616-.936-4.104 0-1.536.24-3.288.72-5.256-3.024 6.72-6.144 10.08-9.36 10.08-1.968 0-2.952-1.272-2.952-3.816 0-4.08 1.968-8.328 5.904-12.744 3.984-4.416 7.944-6.624 11.88-6.624 1.872 0 2.808.816 2.808 2.448 0 2.016-1.344 4.032-4.032 6.048-1.392 3.456-2.088 6.792-2.088 10.008 0 3.168.6 4.752 1.8 4.752 1.584 0 4.464-3.024 8.64-9.072zm-7.632-8.136c.768-1.056 1.152-2.112 1.152-3.168s-.504-1.584-1.512-1.584c-2.4 0-5.544 2.376-9.432 7.128-3.888 4.704-5.832 8.328-5.832 10.872 0 1.104.528 1.656 1.584 1.656 3.024 0 5.952-3.36 8.784-10.08-.864.24-1.44.36-1.728.36s-.432-.072-.432-.216c0-.24.336-.48 1.008-.72l2.232-1.296c.096-.816.6-1.872 1.512-3.168.912-1.344 1.776-2.016 2.592-2.016.288 0 .432.192.432.576s-.12.936-.36 1.656zm6.776 17.64 4.032-18.216c-.192-.672-.72-1.968-1.584-3.888 0-.336.408-.648 1.224-.936 2.4-.912 3.936-1.368 4.608-1.368.72 0 1.08.216 1.08.648-1.776 4.416-3 7.488-3.672 9.216v.432c0 1.488-.216 2.232-.648 2.232-.096 0-.168-.072-.216-.216-1.008 3.024-1.704 5.232-2.088 6.624 2.208-3.6 4.464-6.744 6.768-9.432 3.6-4.176 6.576-6.264 8.928-6.264 1.104 0 1.656.432 1.656 1.296 0 .336-1.392 5.616-4.176 15.84 2.784-2.064 4.944-4.272 6.48-6.624.24-.288.408-.432.504-.432.144 0 .216.072.216.216s-.072.336-.216.576c-2.112 3.744-4.68 6.72-7.704 8.928-.24.288-.552.432-.936.432-.336 0-.504-.216-.504-.648s.288-2.064.864-4.896.984-4.992 1.224-6.48c.288-1.488.48-3.36.576-5.616-1.968.96-4.392 3.024-7.272 6.192s-4.8 5.64-5.76 7.416c-.912 1.776-1.512 3.24-1.8 4.392-.24 1.104-.576 1.656-1.008 1.656-.384 0-.576-.312-.576-.936zm5.112-22.536c-.24.192-.696.432-1.368.72l.72 1.656zm40.182 13.032c.288-.384.504-.576.648-.576s.216.12.216.36c0 .192-.096.408-.288.648-4.32 6.432-7.656 9.648-10.008 9.648-1.296 0-2.28-.6-2.952-1.8-.624-1.248-.936-2.616-.936-4.104 0-1.536.24-3.288.72-5.256-3.024 6.72-6.144 10.08-9.36 10.08-1.968 0-2.952-1.272-2.952-3.816 0-4.08 1.968-8.328 5.904-12.744 3.984-4.416 7.944-6.624 11.88-6.624 1.872 0 2.808.816 2.808 2.448 0 2.016-1.344 4.032-4.032 6.048-1.392 3.456-2.088 6.792-2.088 10.008 0 3.168.6 4.752 1.8 4.752 1.584 0 4.464-3.024 8.64-9.072zm-7.632-8.136c.768-1.056 1.152-2.112 1.152-3.168s-.504-1.584-1.512-1.584c-2.4 0-5.544 2.376-9.432 7.128-3.888 4.704-5.832 8.328-5.832 10.872 0 1.104.528 1.656 1.584 1.656 3.024 0 5.952-3.36 8.784-10.08-.864.24-1.44.36-1.728.36s-.432-.072-.432-.216c0-.24.336-.48 1.008-.72l2.232-1.296c.096-.816.6-1.872 1.512-3.168.912-1.344 1.776-2.016 2.592-2.016.288 0 .432.192.432.576s-.12.936-.36 1.656zm38.692 3.888c-.432-1.728-1.632-2.592-3.6-2.592-3.408 0-6.144 1.704-8.208 5.112-1.872 2.976-2.808 6.096-2.808 9.36s.72 5.832 2.16 7.704c1.488 2.16 3.744 3.24 6.768 3.24 1.344 0 2.784-.216 4.32-.648 4.032-1.248 8.256-5.088 12.672-11.52 3.264-4.656 6.144-9.912 8.64-15.768-1.68-1.872-3.48-3.36-5.4-4.464l-.576-.504c.24-.24.552-.36.936-.36 1.152 0 2.976 1.44 5.472 4.32 2.832-6.72 5.04-13.824 6.624-21.312-.384-.048-.936-.072-1.656-.072-4.32 0-8.664.648-13.032 1.944-6.192 1.824-9.288 4.224-9.288 7.2 0 .816.24 1.56.72 2.232l.72 1.008c0 .096-.072.144-.216.144-.576 0-1.272-.552-2.088-1.656-.912-1.104-1.368-2.04-1.368-2.808 0-2.16 2.784-4.248 8.352-6.264 5.616-2.016 11.4-3.02401 17.352-3.02401 2.016 0 3.36.168 4.032.504.144.048.216.36001.216.93601 0 2.496-.936 6.36-2.808 11.592-1.824 5.184-3.48 9.432-4.968 12.744.72.768 1.32 1.536 1.8 2.304 4.32-8.256 8.328-14.448 12.024-18.576 5.856-6.576 12.168-9.86401 18.936-9.86401 3.6 0 6.552 1.29601 8.856 3.88801 2.352 2.544 3.528 5.616 3.528 9.216 0 1.008-.12 1.512-.36 1.512-.144 0-.216-.408-.216-1.224 0-3.312-1.248-5.952-3.744-7.92-2.448-1.968-5.424-2.952-8.928-2.952-6.144 0-12.072 3.072-17.784 9.216-3.744 4.176-7.68 9.96-11.808 17.352 5.424 7.392 8.4 11.448 8.928 12.168 3.984 5.28 7.248 8.784 9.792 10.512s4.632 2.592 6.264 2.592c2.592 0 3.888-1.656 3.888-4.968 0-3.264-.984-6.24-2.952-8.928-.144-.144-.216-.264-.216-.36 0-.144.096-.216.288-.216.24 0 .456.168.648.504 2.256 2.592 3.384 5.424 3.384 8.496 0 2.208-.672 4.056-2.016 5.544s-3.096 2.232-5.256 2.232c-3.168 0-6.48-1.512-9.936-4.536-3.36-2.832-6.072-6.144-8.136-9.936-.72-1.44-1.728-3.48-3.024-6.12-1.296-2.688-2.16-4.44-2.592-5.256l-3.096 5.472c-3.84 6.864-6.816 10.296-8.928 10.296-.72 0-1.08-.24-1.08-.72 0-.24.312-.384.936-.432 2.256-.288 4.752-2.76 7.488-7.416.336-.528 1.752-3.168 4.248-7.92-.576-1.104-1.08-2.016-1.512-2.736-8.208 16.896-17.496 25.344-27.864 25.344-3.552 0-6.384-1.152-8.496-3.456-2.112-2.256-3.168-5.28-3.168-9.072 0-3.84 1.176-7.296 3.528-10.368 2.4-3.072 5.496-4.608 9.288-4.608 1.104 0 2.112.312 3.024.936 1.008.528 1.512 1.344 1.512 2.448 0 .288-.072.456-.216.504zm58.758-8.352-.648 5.472c0 2.928.432 5.88 1.296 8.856 1.248 4.128 2.952 6.192 5.112 6.192.384 0 .864-.12 1.44-.36s.912-.36 1.008-.36c.384 0 .576.216.576.648s-.504.84-1.512 1.224c-.96.384-1.704.576-2.232.576-2.448 0-4.584-1.848-6.408-5.544-1.776-3.696-2.664-7.056-2.664-10.08 0-.576.024-.984.072-1.224-1.584 2.304-5.016 5.952-10.296 10.944-.624 2.112-1.152 4.224-1.584 6.336-.336 1.296-1.128 1.944-2.376 1.944-.576 0-.816-.192-.72-.576-.144-.384-.48-1.008-1.008-1.872-.576-.816-.864-1.368-.864-1.656s.168-.456.504-.504c.864-.528 1.944-1.368 3.24-2.52 2.928-8.544 7.944-20.664 15.048-36.36.096-.192.24-.552.432-1.08001.336-.912.816-1.92 1.44-3.024.528-1.104 1.8-1.656 3.816-1.656.72 0 1.08.168 1.08.504 0 0-1.44 2.712-4.32 8.13601-6.72 12.72-11.352 22.728-13.896 30.024 5.616-5.616 9.336-10.248 11.16-13.896.288-.48.744-.72 1.368-.72s.936.192.936.576zm-17.784 19.656-1.512 1.224c.24.336.48.84.72 1.512.384-1.44.648-2.352.792-2.736zm48.552-7.056c.288-.384.504-.576.648-.576s.216.12.216.36c0 .192-.096.408-.288.648-4.32 6.432-7.656 9.648-10.008 9.648-1.296 0-2.28-.6-2.952-1.8-.624-1.248-.936-2.616-.936-4.104 0-1.536.24-3.288.72-5.256-3.024 6.72-6.144 10.08-9.36 10.08-1.968 0-2.952-1.272-2.952-3.816 0-4.08 1.968-8.328 5.904-12.744 3.984-4.416 7.944-6.624 11.88-6.624 1.872 0 2.808.816 2.808 2.448 0 2.016-1.344 4.032-4.032 6.048-1.392 3.456-2.088 6.792-2.088 10.008 0 3.168.6 4.752 1.8 4.752 1.584 0 4.464-3.024 8.64-9.072zm-7.632-8.136c.768-1.056 1.152-2.112 1.152-3.168s-.504-1.584-1.512-1.584c-2.4 0-5.544 2.376-9.432 7.128-3.888 4.704-5.832 8.328-5.832 10.872 0 1.104.528 1.656 1.584 1.656 3.024 0 5.952-3.36 8.784-10.08-.864.24-1.44.36-1.728.36s-.432-.072-.432-.216c0-.24.336-.48 1.008-.72l2.232-1.296c.096-.816.6-1.872 1.512-3.168.912-1.344 1.776-2.016 2.592-2.016.288 0 .432.192.432.576s-.12.936-.36 1.656zm6.775 17.64 4.032-18.216c-.192-.672-.72-1.968-1.584-3.888 0-.336.408-.648 1.224-.936 2.4-.912 3.936-1.368 4.608-1.368.72 0 1.08.216 1.08.648-1.776 4.416-3 7.488-3.672 9.216v.432c0 1.488-.216 2.232-.648 2.232-.096 0-.168-.072-.216-.216-1.008 3.024-1.704 5.232-2.088 6.624 2.208-3.6 4.464-6.744 6.768-9.432 3.6-4.176 6.576-6.264 8.928-6.264 1.104 0 1.656.432 1.656 1.296 0 .336-1.392 5.616-4.176 15.84 2.784-2.064 4.944-4.272 6.48-6.624.24-.288.408-.432.504-.432.144 0 .216.072.216.216s-.072.336-.216.576c-2.112 3.744-4.68 6.72-7.704 8.928-.24.288-.552.432-.936.432-.336 0-.504-.216-.504-.648s.288-2.064.864-4.896.984-4.992 1.224-6.48c.288-1.488.48-3.36.576-5.616-1.968.96-4.392 3.024-7.272 6.192s-4.8 5.64-5.76 7.416c-.912 1.776-1.512 3.24-1.8 4.392-.24 1.104-.576 1.656-1.008 1.656-.384 0-.576-.312-.576-.936zm5.112-22.536c-.24.192-.696.432-1.368.72l.72 1.656z" fill="#fff9ff"/></svg>
