<svg width="12" height="13" viewBox="0 0 12 13" fill="none" xmlns="http://www.w3.org/2000/svg">
<path d="M2.61149 0.974487C2.32624 0.974487 2.0899 1.20105 2.0899 1.47449V1.97449H0.52515C0.239908 1.97449 0.00356555 2.20105 0.00356555 2.47449V6.72449C0.0025469 6.81433 0.0514454 6.89832 0.132943 6.94421C0.21444 6.98914 0.314275 6.98914 0.395772 6.94421C0.47727 6.89832 0.526168 6.81433 0.52515 6.72449V4.97449H11.4784V12.4745H0.52515V10.4745C0.526168 10.3846 0.47727 10.3007 0.395772 10.2548C0.314275 10.2098 0.21444 10.2098 0.132943 10.2548C0.0514454 10.3007 0.0025469 10.3846 0.00356555 10.4745V12.4745C0.00356555 12.7479 0.239908 12.9745 0.52515 12.9745H11.4784C11.7637 12.9745 12 12.7479 12 12.4745V2.47449C12 2.20105 11.7637 1.97449 11.4784 1.97449H9.91366V1.47449C9.91366 1.20105 9.67732 0.974487 9.39208 0.974487H8.8705C8.58525 0.974487 8.34891 1.20105 8.34891 1.47449V1.97449H3.65465V1.47449C3.65465 1.20105 3.41831 0.974487 3.13307 0.974487H2.61149ZM2.61149 1.47449H3.13307V2.97449H2.61149V2.26648C2.61658 2.23914 2.61658 2.21179 2.61149 2.18542V1.47449ZM8.8705 1.47449H9.39208V2.18249C9.38699 2.20984 9.38699 2.23718 9.39208 2.26355V2.97449H8.8705V1.47449ZM0.52515 2.47449H2.0899V2.97449C2.0899 3.24792 2.32624 3.47449 2.61149 3.47449H3.13307C3.41831 3.47449 3.65465 3.24792 3.65465 2.97449V2.47449H8.34891V2.97449C8.34891 3.24792 8.58525 3.47449 8.8705 3.47449H9.39208C9.67732 3.47449 9.91366 3.24792 9.91366 2.97449V2.47449H11.4784V4.47449H0.52515V2.47449ZM3.86655 6.50867C3.7606 6.50671 3.66382 6.56628 3.62104 6.65906C3.57927 6.75281 3.60066 6.86121 3.67503 6.93445L4.96269 8.22449H0.264358C0.170635 8.22351 0.0830258 8.27039 0.0351459 8.34851C-0.0117153 8.42664 -0.0117153 8.52234 0.0351459 8.60046C0.0830258 8.67859 0.170635 8.72546 0.264358 8.72449H4.83739L3.67503 9.88953C3.57519 9.99011 3.57825 10.1483 3.68216 10.243C3.78709 10.3387 3.95212 10.3358 4.05094 10.2362L5.57494 8.70886C5.65032 8.68152 5.70737 8.6239 5.73182 8.55164L5.87139 8.41199L4.05195 6.58777C4.00407 6.53894 3.93684 6.50964 3.86655 6.50867Z" fill="#593888"/>
</svg>
