<svg width="12" height="14" viewBox="0 0 12 14" fill="none" xmlns="http://www.w3.org/2000/svg">
<path d="M5.725 0C4.0899 0 2.79971 0.579725 1.94303 1.65058C1.08548 2.72058 0.660577 4.25934 0.660577 6.16538C0.660577 7.54933 1.02785 9.72459 1.02785 9.72459L1.05882 9.90865H3.01818C2.76359 10.0033 2.49781 10.1073 2.22257 10.2312C1.68929 10.4695 1.15171 10.7567 0.734548 11.0965C0.317386 11.4371 0 11.8457 0 12.3308V13.6519H11.45V12.3308C11.45 11.8457 11.1326 11.4371 10.7155 11.0965C10.2983 10.7567 9.76071 10.4695 9.22743 10.2312C8.95219 10.1073 8.68641 10.0033 8.43182 9.90865H10.3L10.3422 9.74265C10.3422 9.74265 10.7894 7.98885 10.7894 5.725C10.7894 4.30493 10.4101 3.10506 9.80888 2.25009C9.23173 1.42953 8.43698 0.934957 7.58975 0.895391C7.54417 0.8197 7.47794 0.68466 7.22936 0.488552C6.91885 0.241695 6.42428 0 5.725 0ZM5.725 0.440385C6.32451 0.440385 6.7107 0.639074 6.95584 0.832602C7.20098 1.02699 7.29129 1.20332 7.29129 1.20332L7.35322 1.32115H7.48654C8.20216 1.32115 8.90919 1.73659 9.44849 2.50383C9.98865 3.27106 10.349 4.3832 10.349 5.725C10.349 7.76866 10.0024 9.24206 9.94736 9.46827H7.26635V9.04767C7.96907 8.53073 8.36731 7.65856 8.36731 6.68662V5.28462C8.36731 4.54319 8.12647 4.04517 7.87618 3.74241C7.62674 3.43878 7.35236 3.32009 7.35236 3.32009L7.21818 3.26418L7.1141 3.36395C7.1141 3.36395 6.97562 3.49985 6.64103 3.65296C6.30645 3.80606 5.78865 3.96346 5.06442 3.96346C4.64468 3.96346 4.16817 4.17505 3.77595 4.55179C3.38374 4.92938 3.08269 5.4876 3.08269 6.17657V6.68748C3.08269 7.65856 3.48093 8.53159 4.18365 9.04767V9.46827H1.43555C1.38996 9.18701 1.10096 7.37472 1.10096 6.16538C1.10096 4.32471 1.51382 2.89002 2.28622 1.92582C3.05861 0.960761 4.19139 0.440385 5.725 0.440385ZM7.48654 1.54135C7.36526 1.54135 7.26635 1.64026 7.26635 1.76154C7.26635 1.88282 7.36526 1.98173 7.48654 1.98173C7.60782 1.98173 7.70673 1.88282 7.70673 1.76154C7.70673 1.64026 7.60782 1.54135 7.48654 1.54135ZM7.48654 2.42212C7.36526 2.42212 7.26635 2.52103 7.26635 2.64231C7.26635 2.76359 7.36526 2.8625 7.48654 2.8625C7.60782 2.8625 7.70673 2.76359 7.70673 2.64231C7.70673 2.52103 7.60782 2.42212 7.48654 2.42212ZM7.25258 3.78542C7.30161 3.81036 7.38504 3.83874 7.53729 4.02195C7.72737 4.25246 7.92692 4.63608 7.92692 5.28462V6.68662C7.92692 7.90542 7.28183 8.8679 6.15248 9.06917L6.08969 9.07949L6.04239 9.12336C5.95637 9.20163 5.848 9.24808 5.725 9.24808C5.602 9.24808 5.49363 9.20163 5.40761 9.12336L5.36031 9.07949L5.29752 9.06917C4.16817 8.8679 3.52308 7.90542 3.52308 6.68748V6.17657C3.52308 5.6149 3.76305 5.17624 4.0813 4.86917C4.39955 4.56297 4.80466 4.40385 5.06442 4.40385C5.85316 4.40385 6.43632 4.23096 6.82424 4.05377C7.10378 3.92562 7.17087 3.85251 7.25258 3.78542ZM4.51394 5.725C4.3316 5.725 4.18365 5.87294 4.18365 6.05529C4.18365 6.23763 4.3316 6.38558 4.51394 6.38558C4.69629 6.38558 4.84423 6.23763 4.84423 6.05529C4.84423 5.87294 4.69629 5.725 4.51394 5.725ZM6.93606 5.725C6.75371 5.725 6.60577 5.87294 6.60577 6.05529C6.60577 6.23763 6.75371 6.38558 6.93606 6.38558C7.1184 6.38558 7.26635 6.23763 7.26635 6.05529C7.26635 5.87294 7.1184 5.725 6.93606 5.725ZM6.82596 9.30484V10.4049C6.7993 10.4583 6.51288 11.0096 5.725 11.0096C4.93712 11.0096 4.6507 10.4583 4.62404 10.4049V9.3057C4.79176 9.38054 4.96981 9.44074 5.16076 9.47945C5.31558 9.60417 5.50911 9.68846 5.725 9.68846C5.94089 9.68846 6.13442 9.60417 6.28924 9.47945C6.48019 9.44074 6.65824 9.38054 6.82596 9.30484ZM4.18365 9.98176V10.5271L4.20688 10.5727C4.20688 10.5727 4.6636 11.45 5.725 11.45C6.7864 11.45 7.24312 10.5727 7.24312 10.5727L7.26635 10.5271V9.98176C7.6362 10.091 8.33376 10.3129 9.04853 10.632C9.56116 10.8617 10.0695 11.1386 10.4368 11.4388C10.804 11.7381 11.0096 12.0452 11.0096 12.3308V13.2115H0.440385V12.3308C0.440385 12.0452 0.645955 11.7381 1.01323 11.4388C1.3805 11.1386 1.88884 10.8617 2.40147 10.632C3.11624 10.3129 3.8138 10.091 4.18365 9.98176ZM1.32115 12.3308C1.19988 12.3308 1.10096 12.4297 1.10096 12.551C1.10096 12.6722 1.19988 12.7712 1.32115 12.7712C1.44243 12.7712 1.54135 12.6722 1.54135 12.551C1.54135 12.4297 1.44243 12.3308 1.32115 12.3308ZM2.20192 12.3308C2.08065 12.3308 1.98173 12.4297 1.98173 12.551C1.98173 12.6722 2.08065 12.7712 2.20192 12.7712C2.3232 12.7712 2.42212 12.6722 2.42212 12.551C2.42212 12.4297 2.3232 12.3308 2.20192 12.3308ZM3.08269 12.3308C2.96141 12.3308 2.8625 12.4297 2.8625 12.551C2.8625 12.6722 2.96141 12.7712 3.08269 12.7712C3.20397 12.7712 3.30288 12.6722 3.30288 12.551C3.30288 12.4297 3.20397 12.3308 3.08269 12.3308ZM3.96346 12.3308C3.84218 12.3308 3.74327 12.4297 3.74327 12.551C3.74327 12.6722 3.84218 12.7712 3.96346 12.7712C4.08474 12.7712 4.18365 12.6722 4.18365 12.551C4.18365 12.4297 4.08474 12.3308 3.96346 12.3308ZM4.84423 12.3308C4.72295 12.3308 4.62404 12.4297 4.62404 12.551C4.62404 12.6722 4.72295 12.7712 4.84423 12.7712C4.96551 12.7712 5.06442 12.6722 5.06442 12.551C5.06442 12.4297 4.96551 12.3308 4.84423 12.3308ZM5.725 12.3308C5.60372 12.3308 5.50481 12.4297 5.50481 12.551C5.50481 12.6722 5.60372 12.7712 5.725 12.7712C5.84628 12.7712 5.94519 12.6722 5.94519 12.551C5.94519 12.4297 5.84628 12.3308 5.725 12.3308ZM6.60577 12.3308C6.48449 12.3308 6.38558 12.4297 6.38558 12.551C6.38558 12.6722 6.48449 12.7712 6.60577 12.7712C6.72705 12.7712 6.82596 12.6722 6.82596 12.551C6.82596 12.4297 6.72705 12.3308 6.60577 12.3308ZM7.48654 12.3308C7.36526 12.3308 7.26635 12.4297 7.26635 12.551C7.26635 12.6722 7.36526 12.7712 7.48654 12.7712C7.60782 12.7712 7.70673 12.6722 7.70673 12.551C7.70673 12.4297 7.60782 12.3308 7.48654 12.3308ZM8.36731 12.3308C8.24603 12.3308 8.14712 12.4297 8.14712 12.551C8.14712 12.6722 8.24603 12.7712 8.36731 12.7712C8.48859 12.7712 8.5875 12.6722 8.5875 12.551C8.5875 12.4297 8.48859 12.3308 8.36731 12.3308ZM9.24808 12.3308C9.1268 12.3308 9.02788 12.4297 9.02788 12.551C9.02788 12.6722 9.1268 12.7712 9.24808 12.7712C9.36935 12.7712 9.46827 12.6722 9.46827 12.551C9.46827 12.4297 9.36935 12.3308 9.24808 12.3308ZM10.1288 12.3308C10.0076 12.3308 9.90865 12.4297 9.90865 12.551C9.90865 12.6722 10.0076 12.7712 10.1288 12.7712C10.2501 12.7712 10.349 12.6722 10.349 12.551C10.349 12.4297 10.2501 12.3308 10.1288 12.3308Z" fill="#e4e2e9"/>
</svg>
