<svg width="13" height="13" viewBox="0 0 13 13" fill="none" xmlns="http://www.w3.org/2000/svg">
<path d="M6.80005 0.774475C3.48943 0.774475 0.800049 3.46386 0.800049 6.77448C0.800049 10.0851 3.48943 12.7745 6.80005 12.7745C10.1107 12.7745 12.8 10.0851 12.8 6.77448C12.8 3.46386 10.1107 0.774475 6.80005 0.774475ZM6.80005 1.29621C9.8287 1.29621 12.2783 3.74583 12.2783 6.77448C12.2783 9.80312 9.8287 12.2527 6.80005 12.2527C3.7714 12.2527 1.32179 9.80312 1.32179 6.77448C1.32179 3.74583 3.7714 1.29621 6.80005 1.29621ZM6.80005 3.1223C6.59249 3.1223 6.39343 3.20475 6.24666 3.35152C6.09989 3.49829 6.01744 3.69735 6.01744 3.90491C6.01744 4.11247 6.09989 4.31153 6.24666 4.4583C6.39343 4.60507 6.59249 4.68752 6.80005 4.68752C7.00761 4.68752 7.20667 4.60507 7.35344 4.4583C7.5002 4.31153 7.58266 4.11247 7.58266 3.90491C7.58266 3.69735 7.5002 3.49829 7.35344 3.35152C7.20667 3.20475 7.00761 3.1223 6.80005 3.1223V3.1223ZM5.75657 5.731V6.25274H6.01744H6.27831V9.64404H6.01744H5.75657V10.1658H6.01744H6.27831H7.32179H7.58266H7.84353V9.64404H7.58266H7.32179V5.731H7.06092H6.01744H5.75657Z" fill="#593888"/>
</svg>
