<svg width="13" height="13" viewBox="0 0 13 13" fill="none" xmlns="http://www.w3.org/2000/svg">
<path d="M10.2143 0C9.47019 0 8.77089 0.289937 8.2447 0.816127L6.69708 2.36375C6.24982 2.81101 5.97335 3.38331 5.9003 4.00205C5.88761 4.111 5.88095 4.2219 5.88095 4.33333C5.88095 4.75676 5.97804 5.16495 6.15602 5.53576L6.62816 5.06301C6.54552 4.83149 6.5 4.58621 6.5 4.33333C6.5 3.75452 6.72558 3.21093 7.13477 2.80143L8.68238 1.25381C9.09188 0.844623 9.63548 0.619048 10.2143 0.619048C10.7931 0.619048 11.3367 0.844623 11.7462 1.25381C12.1557 1.663 12.381 2.2069 12.381 2.78571C12.381 3.36452 12.1554 3.90812 11.7462 4.31762L10.1986 5.86523C9.78907 6.27443 9.24548 6.5 8.66667 6.5C8.41379 6.5 8.16851 6.45448 7.93699 6.37184L7.46424 6.84398C7.83505 7.02196 8.24324 7.11905 8.66667 7.11905C9.41076 7.11905 10.1101 6.82911 10.6363 6.30292L12.1839 4.7553C12.7101 4.22911 13 3.52981 13 2.78571C13 2.04162 12.7101 1.34232 12.1839 0.816127C11.6577 0.289937 10.9584 0 10.2143 0ZM8.3511 4.33031C8.27068 4.33271 8.19436 4.36631 8.1383 4.42401L4.42401 8.1383C4.39431 8.16682 4.37059 8.20098 4.35425 8.23878C4.33791 8.27659 4.32928 8.31727 4.32886 8.35845C4.32844 8.39963 4.33625 8.44048 4.35181 8.4786C4.36738 8.51673 4.39039 8.55137 4.41951 8.58049C4.44863 8.60961 4.48327 8.63262 4.5214 8.64819C4.55952 8.66375 4.60037 8.67156 4.64155 8.67114C4.68273 8.67072 4.72341 8.66209 4.76122 8.64575C4.79902 8.62941 4.83318 8.60569 4.8617 8.57599L8.57599 4.8617C8.62071 4.81822 8.65126 4.76225 8.66363 4.70111C8.676 4.63997 8.66961 4.57653 8.6453 4.51908C8.62099 4.46164 8.57989 4.41288 8.52739 4.3792C8.4749 4.34551 8.41345 4.32847 8.3511 4.33031V4.33031ZM4.33333 5.88095C3.58924 5.88095 2.88994 6.17089 2.36375 6.69708L0.816127 8.2447C0.332032 8.72848 0.0478456 9.35902 0.00544085 10.0359C0.00172656 10.0951 0 10.1545 0 10.2143C0 10.9584 0.289937 11.6577 0.816127 12.1839C1.34232 12.7101 2.04162 13 2.78571 13C3.52981 13 4.22911 12.7101 4.7553 12.1839L6.30292 10.6363C6.82911 10.1101 7.11905 9.41076 7.11905 8.66667C7.11905 8.24324 7.02196 7.83505 6.84398 7.46424L6.37184 7.93699C6.45448 8.16851 6.5 8.41379 6.5 8.66667C6.5 9.24548 6.27443 9.78907 5.86523 10.1986L4.31762 11.7462C3.90812 12.1554 3.36452 12.381 2.78571 12.381C2.2069 12.381 1.66331 12.1554 1.25381 11.7462C0.844313 11.337 0.619048 10.7931 0.619048 10.2143C0.619048 9.63548 0.844623 9.09188 1.25381 8.68238L2.80143 7.13477C3.21093 6.72558 3.75452 6.5 4.33333 6.5C4.58621 6.5 4.83149 6.54552 5.06301 6.62816L5.53576 6.15602C5.16495 5.97804 4.75676 5.88095 4.33333 5.88095Z" fill="#593888"/>
</svg>
