<svg width="13" height="13" viewBox="0 0 13 13" fill="none" xmlns="http://www.w3.org/2000/svg">
<path d="M9.8171 0.974487C8.96889 0.974487 8.2267 1.42591 7.83161 2.08726C7.55929 2.04752 7.28362 2.02306 7.01688 2.02V2.01797H6.95996C3.64523 2.01797 0.959961 4.46973 0.959961 7.49623C0.959961 10.5227 3.64523 12.9745 6.95996 12.9745C10.2747 12.9745 12.96 10.5227 12.96 7.49623C12.96 6.32537 12.5247 5.17897 11.7713 4.25166C11.97 3.8359 12.1028 3.45275 12.1028 3.1664C12.1028 1.966 11.0738 0.974487 9.8171 0.974487ZM9.8171 1.49623C10.7602 1.49623 11.5314 2.25234 11.5314 3.1664C11.5314 3.79208 10.6173 5.25234 9.8171 6.32231C9.01688 5.25234 8.10282 3.79208 8.10282 3.1664C8.10282 2.25234 8.87402 1.49623 9.8171 1.49623ZM9.8171 2.01797C9.18876 2.01797 8.67425 2.48773 8.67425 3.06144C8.67425 3.63515 9.18876 4.10492 9.8171 4.10492C10.4455 4.10492 10.96 3.63515 10.96 3.06144C10.96 2.48773 10.4455 2.01797 9.8171 2.01797ZM9.8171 2.5397C10.1363 2.5397 10.3885 2.77 10.3885 3.06144C10.3885 3.35288 10.1363 3.58318 9.8171 3.58318C9.49791 3.58318 9.24568 3.35288 9.24568 3.06144C9.24568 2.77 9.49791 2.5397 9.8171 2.5397ZM7.24568 2.55193C7.36733 2.55703 7.49233 2.56722 7.61733 2.58047C7.56376 2.76797 7.53139 2.96362 7.53139 3.1664C7.53139 3.53733 7.75126 4.06926 8.05371 4.62666H7.24568V2.55193ZM6.67425 2.57435V4.62666H4.8796C5.29701 3.51695 5.9421 2.7374 6.67425 2.57435ZM5.35951 2.75879C4.90974 3.21226 4.53697 3.85322 4.27023 4.62666H2.53809C3.22224 3.7503 4.20661 3.08284 5.35951 2.75879ZM11.4901 4.78665C12.0269 5.5071 12.3271 6.35696 12.3774 7.23536H10.1006C10.0995 7.11613 10.0939 7.00098 10.0861 6.88278C10.4164 6.44765 11.0057 5.64161 11.4901 4.78665ZM2.17871 5.1484H4.11175C3.94434 5.78325 3.84389 6.48638 3.82492 7.23536H1.5459C1.58831 6.48332 1.80818 5.7751 2.17871 5.1484ZM4.7055 5.1484H6.67425V7.23536H4.39635C4.41755 6.48841 4.52469 5.77816 4.7055 5.1484ZM7.24568 5.1484H8.35951C8.77135 5.82401 9.20996 6.43441 9.50349 6.82367C9.51242 6.95818 9.518 7.09677 9.52246 7.23536H7.24568V5.1484ZM1.5459 7.7571H3.82492C3.84389 8.50608 3.94434 9.2092 4.11175 9.84405H2.17871C1.80818 9.21735 1.58831 8.50913 1.5459 7.7571ZM4.39635 7.7571H6.67425V9.84405H4.7055C4.52469 9.2143 4.41755 8.50404 4.39635 7.7571ZM7.24568 7.7571H9.52358C9.50237 8.50404 9.39523 9.2143 9.21443 9.84405H7.24568V7.7571ZM10.095 7.7571H12.374C12.3316 8.50913 12.1117 9.21735 11.7412 9.84405H9.80818C9.97559 9.2092 10.076 8.50608 10.095 7.7571ZM2.53809 10.3658H4.27023C4.53697 11.1392 4.90974 11.7802 5.35951 12.2337C4.20661 11.9096 3.22224 11.2422 2.53809 10.3658ZM4.8796 10.3658H6.67425V12.4191C5.94322 12.2551 5.29701 11.4755 4.8796 10.3658ZM7.24568 10.3658H9.04032C8.62291 11.4755 7.9767 12.2551 7.24568 12.4191V10.3658ZM9.64969 10.3658H11.3818C10.6977 11.2422 9.71331 11.9096 8.56041 12.2337C9.01018 11.7802 9.38295 11.1392 9.64969 10.3658Z" fill="#593888"/>
</svg>
