<?xml version="1.0" encoding="iso-8859-1"?>
<!-- Generator: Adobe Illustrator 19.1.1, SVG Export Plug-In . SVG Version: 6.00 Build 0)  -->
<svg version="1.1"  xmlns="http://www.w3.org/2000/svg" xmlns:xlink="http://www.w3.org/1999/xlink" x="0px" y="0px"
	 viewBox="0 0 48 48" style="enable-background:new 0 0 48 48;" xml:space="preserve">
<path style="fill:#304FFE;" d="M32,42H16c-5.514,0-10-4.486-10-10V16c0-5.514,4.486-10,10-10h16c5.514,0,10,4.486,10,10v16
	C42,37.514,37.514,42,32,42z"/>
<path style="opacity:0.29;fill:#304FFE;" d="M6,16v16c0,5.514,4.486,10,10,10h16c5.514,0,10-4.486,10-10V16
	c0-0.962-0.144-1.89-0.399-2.771C35.954,8.709,28.795,6,21,6c-3.737,0-7.324,0.63-10.673,1.775C7.716,9.581,6,12.592,6,16z"/>
<path style="fill:#6200EA;" d="M21,8c-4.956,0-9.636,1.169-13.791,3.237C6.438,12.654,6,14.277,6,16v16c0,5.514,4.486,10,10,10h16
	c5.514,0,10-4.486,10-10V16.202C36.477,11.112,29.103,8,21,8z"/>
<path style="fill:#673AB7;" d="M42,19.012C36.717,13.464,29.266,10,21,10c-5.411,0-10.473,1.486-14.809,4.067
	C6.068,14.693,6,15.338,6,16v16c0,5.514,4.486,10,10,10h16c5.514,0,10-4.486,10-10V19.012z"/>
<path style="fill:#8E24AA;" d="M42,22.036C37.05,15.916,29.484,12,21,12c-5.551,0-10.709,1.677-15,4.55V32c0,5.514,4.486,10,10,10
	h16c5.514,0,10-4.486,10-10V22.036z"/>
<path style="fill:#C2185B;" d="M42,32v-6.557C37.547,18.559,29.808,14,21,14c-5.628,0-10.822,1.861-15,5v13c0,5.514,4.486,10,10,10
	h16C37.514,42,42,37.514,42,32z"/>
<path style="fill:#D81B60;" d="M42,32v-2.379C38.41,21.596,30.361,16,21,16c-5.733,0-10.972,2.103-15,5.572V32
	c0,5.514,4.486,10,10,10h16C37.514,42,42,37.514,42,32z"/>
<path style="fill:#F50057;" d="M41.584,34.837C39.652,25.234,31.172,18,21,18c-5.88,0-11.188,2.423-15,6.317V32
	c0,5.514,4.486,10,10,10h16C36.528,42,40.357,38.972,41.584,34.837z"/>
<path style="fill:#FF1744;" d="M39.951,38.039C39.448,27.995,31.169,20,21,20c-6.106,0-11.524,2.892-15,7.367V32
	c0,5.514,4.486,10,10,10h16C35.244,42,38.123,40.44,39.951,38.039z"/>
<path style="fill:#FF5722;" d="M21,22c-6.497,0-12.139,3.648-15,9.004V32c0,5.514,4.486,10,10,10h16
	c2.229,0,4.284-0.742,5.949-1.981C37.969,39.68,38,39.344,38,39C38,29.611,30.389,22,21,22z"/>
<path style="fill:#FF6F00;" d="M21,24c-6.952,0-12.782,4.736-14.483,11.152C7.841,39.124,11.588,42,16,42h16
	c1.351,0,2.638-0.272,3.815-0.76C35.925,40.507,36,39.763,36,39C36,30.716,29.284,24,21,24z"/>
<path style="fill:#FF9800;" d="M21,26c-6.855,0-12.458,5.31-12.951,12.039C9.877,40.44,12.756,42,16,42h16
	c0.573,0,1.131-0.059,1.677-0.152C33.883,40.93,34,39.98,34,39C34,31.82,28.18,26,21,26z"/>
<path style="fill:#FFC107;" d="M31.575,42C31.846,41.045,32,40.041,32,39c0-6.075-4.925-11-11-11s-11,4.925-11,11
	c0,0.344,0.021,0.683,0.051,1.019C11.716,41.258,13.771,42,16,42H31.575z"/>
<path style="fill:#FFD54F;" d="M21,30c-4.971,0-9,4.029-9,9c0,0.79,0.112,1.553,0.304,2.283C13.449,41.741,14.694,42,16,42h13.477
	C29.81,41.06,30,40.054,30,39C30,34.029,25.971,30,21,30z"/>
<path style="fill:#FFE082;" d="M21,32.085c-3.866,0-7,3.134-7,7c0,0.998,0.212,1.945,0.588,2.804C15.051,41.954,15.52,42,16,42
	h11.358C27.766,41.112,28,40.126,28,39.085C28,35.219,24.866,32.085,21,32.085z"/>
<path style="fill:#FFECB3;" d="M21,34.085c-2.761,0-5,2.239-5,5c0,1.091,0.359,2.093,0.953,2.915h8.095
	C25.641,41.178,26,40.176,26,39.085C26,36.323,23.761,34.085,21,34.085z"/>
<path style="fill:none;stroke:#FFFFFF;stroke-width:2;stroke-miterlimit:10;" d="M18,37h12c3.866,0,7-3.134,7-7V18
	c0-3.866-3.134-7-7-7H18c-3.866,0-7,3.134-7,7v12C11,33.866,14.134,37,18,37z"/>
<circle style="fill:none;stroke:#FFFFFF;stroke-width:2;stroke-miterlimit:10;" cx="24" cy="24" r="6"/>
<circle style="fill:#FFFFFF;" cx="31" cy="16" r="1"/>
</svg>
